<?xml version="1.0" standalone="no"?>
<!DOCTYPE svg PUBLIC "-//W3C//DTD SVG 20010904//EN"
 "http://www.w3.org/TR/2001/REC-SVG-20010904/DTD/svg10.dtd">
<svg version="1.0" xmlns="http://www.w3.org/2000/svg"
 width="300.000000pt" height="307.000000pt" viewBox="0 0 300.000000 307.000000"
 preserveAspectRatio="xMidYMid meet">
<metadata>
Created by potrace 1.10, written by Peter Selinger 2001-2011
</metadata>
<g transform="translate(0.000000,307.000000) scale(0.100000,-0.100000)"
fill="#000000" stroke="none">
<path d="M1476 2767 c-90 -839 -238 -1045 -829 -1158 -61 -12 -209 -34 -327
-49 -118 -16 -213 -29 -210 -29 3 -1 95 -12 205 -26 250 -31 395 -57 510 -90
363 -105 503 -273 589 -703 26 -126 76 -494 76 -554 0 -68 10 -14 35 192 58
480 128 706 265 853 152 166 360 236 892 302 104 13 191 25 193 27 2 2 -80 14
-183 26 -374 46 -541 84 -697 157 -290 135 -393 354 -470 999 -14 115 -26 211
-28 213 -2 1 -12 -70 -21 -160z"/>
</g>
</svg>
